<?xml version="1.0" encoding="UTF-8"?>
<svg width="171" height="64" viewBox="0 0 171 64" xmlns="http://www.w3.org/2000/svg" xmlns:xlink="http://www.w3.org/1999/xlink">
  <g id="right">
    <linearGradient id="linearGradient1" x1="149.933853" y1="24.738026" x2="148.145725" y2="55.545752" gradientUnits="userSpaceOnUse" gradientTransform="matrix(0.998915 0.046574 -0.046574 0.998915 1.934239 -6.899752)">
      <stop offset="0" stop-color="#008e0a" stop-opacity="1" />
      <stop offset="1" stop-color="#00792d" stop-opacity="1" />
    </linearGradient>
    <path id="stem" fill="none" stroke="url(#linearGradient1)" stroke-width="1.977238" stroke-linecap="round" stroke-linejoin="round" d="M 145.202698 13.826611 C 144.875824 34.943611 152.859802 62.288616 152.859802 62.288616" />
    <linearGradient id="linearGradient2" x1="149.713746" y1="7.165084" x2="140.735121" y2="22.672469" gradientUnits="userSpaceOnUse">
      <stop offset="0" stop-color="#007008" stop-opacity="1" />
      <stop offset="1" stop-color="#009a39" stop-opacity="1" />
    </linearGradient>
    <path id="leaves" fill="url(#linearGradient2)" fill-rule="evenodd" stroke="none" d="M 127.480469 25.962891 C 126.512329 25.971439 125.685371 25.851978 125.054688 25.587891 C 122.171547 24.380627 124.493828 20.630363 130.240234 17.212891 C 132.650223 15.779633 135.777313 14.8498 138.601563 14.248047 C 135.547318 13.907181 132.021194 13.254955 129.068359 12.013672 C 122.233383 9.140465 118.649925 5.642746 121.064453 4.201172 C 123.478981 2.759602 130.977509 3.919746 137.8125 6.792969 C 141.658951 8.409901 143.710434 10.680351 144.769531 12.357422 C 145.201889 10.609936 146.40947 8.129333 149.730469 6.154297 C 155.476898 2.736813 162.472336 0.94508 165.355469 2.152344 C 168.238602 3.3596 165.916351 7.107918 160.169922 10.525391 C 157.694321 11.997665 154.460007 12.941387 151.576172 13.541016 C 154.672516 13.875988 158.281952 14.526413 161.294922 15.792969 C 168.129883 18.666176 171.713364 22.163898 169.298828 23.605469 C 166.884308 25.047043 159.385773 23.886879 152.550781 21.013672 C 148.733566 19.409035 146.683258 17.161495 145.617188 15.488281 C 145.16011 17.229885 143.929077 19.653484 140.679688 21.585938 C 136.190292 24.255844 130.938126 25.932354 127.480469 25.962891 Z" />
  </g>
  <g id="middle">
    <linearGradient id="linearGradient3" x1="90.933853" y1="24.738026" x2="89.145725" y2="55.545752" gradientUnits="userSpaceOnUse" gradientTransform="matrix(0.998915 0.046574 -0.046574 0.998915 1.870213 -4.151858)">
      <stop offset="0" stop-color="#008e0a" stop-opacity="1" />
      <stop offset="1" stop-color="#00792d" stop-opacity="1" />
    </linearGradient>
    <path id="path1" fill="none" stroke="url(#linearGradient3)" stroke-width="1.977238" stroke-linecap="round" stroke-linejoin="round" d="M 86.202698 13.826611 C 85.875824 34.943611 93.859802 62.288616 93.859802 62.288616" />
    <linearGradient id="linearGradient4" x1="90.713746" y1="7.165084" x2="81.735121" y2="22.672469" gradientUnits="userSpaceOnUse">
      <stop offset="0" stop-color="#007008" stop-opacity="1" />
      <stop offset="1" stop-color="#009a39" stop-opacity="1" />
    </linearGradient>
    <path id="path2" fill="url(#linearGradient4)" fill-rule="evenodd" stroke="none" d="M 68.480469 25.962891 C 67.512329 25.971439 66.685371 25.851978 66.054688 25.587891 C 63.171558 24.380627 65.493828 20.630363 71.240234 17.212891 C 73.650223 15.779633 76.777313 14.8498 79.601563 14.248047 C 76.547318 13.907181 73.021187 13.254955 70.068359 12.013672 C 63.233391 9.140465 59.649925 5.642746 62.064453 4.201172 C 64.478973 2.759602 71.977524 3.919746 78.8125 6.792969 C 82.658966 8.409901 84.710434 10.680351 85.769531 12.357422 C 86.201889 10.609936 87.409477 8.129333 90.730469 6.154297 C 96.476883 2.736813 103.472336 0.94508 106.355469 2.152344 C 109.238609 3.3596 106.916328 7.107918 101.169922 10.525391 C 98.694328 11.997665 95.460007 12.941387 92.576172 13.541016 C 95.672516 13.875988 99.28196 14.526413 102.294922 15.792969 C 109.129883 18.666176 112.713364 22.163898 110.298828 23.605469 C 107.884308 25.047043 100.385757 23.886879 93.550781 21.013672 C 89.733582 19.409035 87.683266 17.161495 86.617188 15.488281 C 86.160103 17.229885 84.92907 19.653484 81.679688 21.585938 C 77.1903 24.255844 71.938118 25.932354 68.480469 25.962891 Z" />
  </g>
  <g id="left">
    <linearGradient id="linearGradient5" x1="31.933853" y1="24.738026" x2="30.145725" y2="55.545752" gradientUnits="userSpaceOnUse" gradientTransform="matrix(0.998915 0.046574 -0.046574 0.998915 1.806188 -1.403965)">
      <stop offset="0" stop-color="#008e0a" stop-opacity="1" />
      <stop offset="1" stop-color="#00792d" stop-opacity="1" />
    </linearGradient>
    <path id="path3" fill="none" stroke="url(#linearGradient5)" stroke-width="1.977238" stroke-linecap="round" stroke-linejoin="round" d="M 27.202702 13.826611 C 26.875824 34.943611 34.859798 62.288616 34.859798 62.288616" />
    <linearGradient id="linearGradient6" x1="31.713746" y1="7.165084" x2="22.735121" y2="22.672469" gradientUnits="userSpaceOnUse">
      <stop offset="0" stop-color="#007008" stop-opacity="1" />
      <stop offset="1" stop-color="#009a39" stop-opacity="1" />
    </linearGradient>
    <path id="path4" fill="url(#linearGradient6)" fill-rule="evenodd" stroke="none" d="M 9.480469 25.962891 C 8.512329 25.971439 7.685372 25.851978 7.054688 25.587891 C 4.171552 24.380627 6.493823 20.630363 12.240234 17.212891 C 14.650228 15.779633 17.777311 14.8498 20.601563 14.248047 C 17.547316 13.907181 14.021189 13.254955 11.068359 12.013672 C 4.233385 9.140465 0.649927 5.642746 3.064453 4.201172 C 5.47898 2.759602 12.977526 3.919746 19.8125 6.792969 C 23.658966 8.409901 25.710434 10.680351 26.769531 12.357422 C 27.201891 10.609936 28.409481 8.129333 31.730469 6.154297 C 37.476883 2.736813 44.472347 0.94508 47.355469 2.152344 C 50.238594 3.3596 47.916328 7.107918 42.169922 10.525391 C 39.694332 11.997665 36.460003 12.941387 33.576172 13.541016 C 36.672508 13.875988 40.281967 14.526413 43.294922 15.792969 C 50.129879 18.666176 53.71336 22.163898 51.298828 23.605469 C 48.884315 25.047043 41.385754 23.886879 34.550781 21.013672 C 30.733576 19.409035 28.68326 17.161495 27.617188 15.488281 C 27.160105 17.229885 25.92907 19.653484 22.679688 21.585938 C 18.190296 24.255844 12.938108 25.932354 9.480469 25.962891 Z" />
  </g>
</svg>